<?xml version="1.0" encoding="UTF-8"?><svg id="Layer_2" xmlns="http://www.w3.org/2000/svg" viewBox="0 0 1438.07 744.47"><defs><style>.cls-1{fill:none;stroke:#fff;stroke-miterlimit:10;stroke-width:2px;}</style></defs><g id="Layer_1-2"><path class="cls-1" d="M431.31,744.38c0-.63-.01-250.7,0-432.3.01-164.53,133.85-297.9,298.95-297.9h0c111.94,0,209.31,62.18,259.24,153.77l448.58,1.27"/><path class="cls-1" d="M382.67,744.47V229.29h0c0-112.04-91.13-202.86-203.56-202.86h-89.39"/><path class="cls-1" d="M369.8,394.05c23.64-.35,48.38,0,48.38,0"/><line class="cls-1" x1="392.62" y1="401.06" x2="392.62" y2="744.38"/><path class="cls-1" d="M418.18,744.41v-432.56C418.18,140.17,557.83,1,730.09,1h8.77"/><path class="cls-1" d="M.63,671.55c2.09-1.68,87.96-79.49,140.76-127.35,26.09-23.65,60.08-36.75,95.35-36.75h145.94"/></g></svg>