<svg width="20" height="23" viewBox="0 0 20 23" fill="none" xmlns="http://www.w3.org/2000/svg">
<path d="M19.9977 21.662C19.9547 21.2061 19.9117 20.764 19.8686 20.3081C19.8113 19.6864 19.7539 19.0647 19.6822 18.4291C19.6249 17.8489 19.5675 17.2548 19.5245 16.6745C19.4671 16.0804 19.4241 15.4863 19.3667 14.8923C19.3094 14.2291 19.2377 13.5659 19.1803 12.9028C19.1086 12.1843 19.0369 11.4521 18.9795 10.7337C18.9365 10.2916 18.9078 9.86328 18.8648 9.42117C18.8074 8.73038 18.7501 8.02576 18.6784 7.33497C18.6067 6.58891 18.3485 6.36786 17.5311 6.36786H16.8141C16.0971 6.36786 15.3514 6.36786 14.6344 6.36786C14.5053 6.36786 14.4623 6.34023 14.4336 6.32641C14.4049 6.29878 14.4049 6.24352 14.4049 6.1468C14.4192 5.98101 14.4192 5.81522 14.4049 5.66325C14.4049 5.53891 14.4049 5.41456 14.4049 5.29022C14.4623 3.28692 12.9709 1.4494 10.9202 1.02111C8.82645 0.579001 6.51763 1.85006 5.88665 3.77047C5.62852 4.54416 5.64286 5.34548 5.6572 6.10536V6.13299C5.6572 6.25733 5.64286 6.29878 5.61418 6.31259C5.59984 6.32641 5.54248 6.35404 5.42775 6.35404C4.61034 6.34023 3.7786 6.34023 2.96119 6.35404H2.58833C2.37323 6.35404 2.21548 6.36786 2.05773 6.39549C1.68488 6.47839 1.45543 6.72707 1.41241 7.08628V7.29352C1.34071 8.09484 1.25467 8.9238 1.16862 9.75275C1.09692 10.5817 1.01088 11.3968 0.939175 12.2258C0.853132 13.2067 0.767089 14.1738 0.666706 15.1548C0.551982 16.4396 0.422917 17.7107 0.293853 18.9956C0.193469 19.9765 0.107426 20.9436 0.00704271 21.9245C-0.0216383 22.2561 0.0357237 22.5048 0.20781 22.6706C0.365555 22.8502 0.623684 22.9331 0.967856 22.9331C2.1868 22.9331 3.3914 22.9331 4.596 22.9331C6.04439 22.9331 7.50713 22.9331 8.95552 22.9331H18.5923C18.7644 22.9331 18.9222 22.9331 19.0943 22.9331C19.6966 22.9193 19.9547 22.643 19.969 22.0627C20.012 21.9384 19.9977 21.814 19.9977 21.662ZM1.78527 20.9989C1.95735 19.2028 2.12944 17.4206 2.30152 15.6245C2.53097 13.1791 2.77476 10.6646 3.00421 8.17774C3.01855 8.01195 3.04723 7.9705 3.21932 7.9705C3.21932 7.9705 3.23366 7.9705 3.248 7.9705C4.03672 7.98432 4.76809 7.98432 5.47077 7.9705C5.55682 7.9705 5.62852 7.98432 5.64286 8.01195C5.67154 8.03958 5.67154 8.09484 5.67154 8.17774C5.6572 8.37116 5.6572 8.52314 5.67154 8.67511C5.70022 9.04814 5.64286 9.35209 5.34171 9.65604C4.83979 10.1396 4.83979 10.9824 5.34171 11.5488C5.78627 12.0462 6.61801 12.1982 7.22032 11.8804C7.89432 11.535 8.19547 10.8442 7.96602 10.1672C7.90866 9.98762 7.79394 9.83565 7.67921 9.68367C7.62185 9.60078 7.56449 9.5317 7.52147 9.4488L7.47844 9.39354C7.42108 9.29683 7.36372 9.21393 7.36372 9.13104C7.34938 8.95143 7.34938 8.75801 7.36372 8.5784C7.36372 8.44024 7.36372 8.28827 7.36372 8.13629C7.36372 8.03958 7.37806 8.01195 7.3924 7.99813C7.40674 7.98432 7.42108 7.9705 7.53581 7.9705C9.22799 7.98432 10.9058 7.98432 12.555 7.9705C12.684 7.9705 12.7271 7.99813 12.7414 8.01195C12.7701 8.03958 12.7701 8.09484 12.7701 8.16392C12.7558 8.42643 12.7558 8.6613 12.7701 8.86853C12.7988 9.15867 12.7127 9.33827 12.4976 9.5317C12.2395 9.75275 12.0817 10.0843 12.0674 10.4574C12.0531 10.8718 12.1965 11.2725 12.4833 11.5626C13.0426 12.1291 13.9604 12.1843 14.5913 11.6732C14.9355 11.3968 15.1506 10.9685 15.165 10.5541C15.1793 10.2087 15.0502 9.89091 14.7921 9.65604C14.4192 9.31064 14.4192 8.95143 14.4192 8.4955V8.48169C14.4192 8.39879 14.4192 8.3159 14.4192 8.24682C14.4192 8.12248 14.4192 7.98432 14.4336 7.95669C14.4623 7.94287 14.5913 7.94287 14.7061 7.94287C14.7778 7.94287 14.8638 7.94287 14.9642 7.94287C15.1936 7.94287 15.4374 7.94287 15.6669 7.94287C16.0541 7.94287 16.4413 7.94287 16.8285 7.92905C17.0436 7.92905 17.0866 7.95669 17.1153 8.16392C17.3017 10.3054 17.5025 12.4468 17.7176 14.837L17.7462 15.1824C17.9183 17.1028 18.1048 19.0923 18.3055 21.0541C18.3199 21.1923 18.3055 21.2476 18.2912 21.2476C18.2768 21.2614 18.2482 21.2752 18.1048 21.2752C16.0397 21.2614 13.946 21.2752 11.924 21.2752L7.98036 21.289C6.04439 21.289 4.09409 21.289 2.15812 21.289C2.02905 21.289 1.85697 21.289 1.82829 21.2752C1.75658 21.289 1.77092 21.137 1.78527 20.9989ZM12.7271 6.1468C12.7271 6.20207 12.7271 6.28496 12.6984 6.32641C12.6697 6.35404 12.598 6.36786 12.4976 6.36786C11.8953 6.36786 11.2787 6.36786 10.6907 6.36786H9.98803C9.74424 6.36786 9.48612 6.36786 9.24233 6.36786C8.68305 6.36786 8.10943 6.36786 7.55015 6.36786C7.42108 6.36786 7.37806 6.34023 7.36372 6.32641C7.33504 6.29878 7.33504 6.24352 7.33504 6.17444C7.34938 5.98101 7.34938 5.77378 7.34938 5.56654C7.34938 5.16588 7.34938 4.77903 7.44976 4.41982C7.75091 3.30073 8.81211 2.52704 9.98803 2.52704C10.0884 2.52704 10.1745 2.52704 10.2748 2.54086C11.6372 2.69283 12.6267 3.71521 12.7127 5.04153C12.7271 5.23496 12.7271 5.42838 12.7271 5.60798C12.7271 5.78759 12.7271 5.9672 12.7271 6.1468Z" fill="black"/>
</svg>
