<?xml version="1.0" encoding="UTF-8"?>
<svg xmlns="http://www.w3.org/2000/svg" width="80" height="80" viewBox="0 0 80 80" fill="none">
  <g opacity="0.5">
    <mask id="mask0_417_17025" style="mask-type:luminance" maskUnits="userSpaceOnUse" x="0" y="0" width="80" height="80">
      <path d="M80 0H0V80H80V0Z" fill="white"></path>
    </mask>
    <g mask="url(#mask0_417_17025)">
      <mask id="mask1_417_17025" style="mask-type:luminance" maskUnits="userSpaceOnUse" x="0" y="0" width="80" height="80">
        <path d="M80 39.9999C80.0356 46.2584 78.5605 52.4332 75.7 57.9999C72.3684 64.6116 67.2671 70.1689 60.9641 74.0531C54.6611 77.9373 47.4037 79.996 40 79.9999H38.7001C30.8492 79.7446 23.2473 77.1834 16.8425 72.6359C10.4378 68.0883 5.51371 61.7557 2.68457 54.4279C-0.144576 47.1001 -0.75358 39.1014 0.933519 31.4298C2.62063 23.7581 6.52916 16.753 12.1716 11.2881C17.814 5.82334 24.9406 2.14078 32.6622 0.699821C40.3839 -0.741143 48.359 0.123282 55.5926 3.18527C62.8262 6.24725 68.9982 11.3713 73.3386 17.9181C77.6791 24.465 79.9959 32.1449 80 39.9999Z" fill="white"></path>
      </mask>
      <g mask="url(#mask1_417_17025)">
        <path d="M60.4894 -34.6523L-34.6016 19.9977L20.0384 115.071L115.13 60.4213L60.4894 -34.6523Z" fill="#FFCE05"></path>
      </g>
    </g>
  </g>
  <path d="M25.8006 18.5999V62.0999C25.7959 62.5085 25.9051 62.9103 26.1159 63.2603C26.3267 63.6103 26.6309 63.8947 26.9943 64.0816C27.3576 64.2685 27.7659 64.3505 28.1732 64.3184C28.5806 64.2863 28.9709 64.1414 29.3006 63.8999L60.9006 42.1999C61.2102 42.0006 61.4648 41.7268 61.6412 41.4036C61.8176 41.0804 61.91 40.7181 61.91 40.3499C61.91 39.9817 61.8176 39.6194 61.6412 39.2961C61.4648 38.9729 61.2102 38.6991 60.9006 38.4999L29.3006 16.6999C28.9641 16.4523 28.5641 16.3057 28.1474 16.2771C27.7306 16.2485 27.3144 16.3392 26.9472 16.5385C26.5801 16.7378 26.2773 17.0375 26.0743 17.4025C25.8712 17.7676 25.7763 18.1829 25.8006 18.5999Z" fill="white"></path>
</svg>
