<?xml version="1.0" encoding="UTF-8"?> <svg xmlns="http://www.w3.org/2000/svg" viewBox="0 0 140 140" style="enable-background:new 0 0 140 140" xml:space="preserve"><path d="m67.98 7.11-3.21.07 6.5-3.68.04 1.83-3.33 1.78zm3.45 3.46-6.66-3.39 3.21-.07 3.41 1.62.04 1.84zM76.3 7.4l-3.19-.34 6.93-2.81-.2 1.82L76.3 7.4zm2.97 3.88-6.16-4.22 3.19.34 3.17 2.05-.2 1.83zm5.2-2.51-3.12-.76 7.24-1.87-.44 1.78-3.68.85zm2.44 4.24-5.56-4.99 3.12.76 2.88 2.44-.44 1.79zm18.52 11.86c-.35-.72-.47-1.43-.37-2.14.1-.71.43-1.38.97-2.01l3.41-3.94c.54-.63 1.16-1.05 1.85-1.25.69-.2 1.42-.19 2.18.05.76.24 1.53.68 2.29 1.34s1.32 1.34 1.66 2.06c.35.72.47 1.43.37 2.14-.1.71-.42 1.38-.97 2.01l-3.41 3.94c-.54.63-1.16 1.04-1.85 1.25-.69.21-1.42.19-2.18-.05-.76-.24-1.53-.68-2.29-1.34-.76-.65-1.31-1.34-1.66-2.06zm4.02 1.75c.47.14.91.15 1.33.02.42-.13.8-.39 1.15-.79l3.48-4.02c.34-.4.55-.81.61-1.25.07-.43-.01-.87-.21-1.31-.21-.44-.54-.85-1-1.25-.46-.4-.93-.67-1.39-.81-.47-.14-.91-.15-1.33-.02-.42.13-.81.39-1.15.78l-3.5 4.03c-.34.4-.55.81-.61 1.25-.06.44.01.87.22 1.31.21.44.54.86 1 1.25.47.4.93.67 1.4.81zm10.31-.56 1.18 1.5-7.32 5.7-1.18-1.5 7.32-5.7zm1.33 6.92c.5-.39.76-.83.79-1.33.03-.5-.18-1.03-.62-1.6-.44-.56-.89-.88-1.37-.98-.48-.09-.95.04-1.43.41l1.08-1.14c.65-.11 1.26-.04 1.82.21s1.06.66 1.5 1.22c.66.85.96 1.67.87 2.47-.08.8-.54 1.52-1.37 2.16l-4.88 3.8-1.18-1.5 4.79-3.72zm.73 7.87c-.28.16-.46.37-.52.61-.06.25-.01.51.15.8l.44.76-1.23.7-.56-.97c-.43-.75-.58-1.43-.44-2.05.14-.62.54-1.13 1.22-1.51l9.14-5.23.95 1.65-9.15 5.24zm8.14.82.79 1.73-8.44 3.84-.79-1.73 8.44-3.84zm3.23-1.47.79 1.73-1.38.63-.79-1.73 1.38-.63zm-.86 6.8.55 1.82-8.89 2.67-.55-1.82 8.89-2.67zm-1.27 6.94c.61-.18 1.01-.5 1.22-.96.21-.46.21-1.03 0-1.71-.2-.68-.51-1.14-.92-1.4-.41-.26-.91-.3-1.48-.13l1.42-.67a3.1 3.1 0 0 1 1.62.85c.43.44.75 1 .96 1.68.31 1.03.28 1.9-.08 2.61-.37.71-1.05 1.22-2.06 1.52l-5.93 1.78-.55-1.82 5.8-1.75zm-4.32 7.59c.21-.67.57-1.2 1.07-1.59.5-.4 1.13-.64 1.89-.72l2.13-.24c.79-.09 1.49 0 2.09.26.6.26 1.08.69 1.45 1.27.37.58.6 1.31.69 2.18.09.84.03 1.58-.2 2.21s-.61 1.13-1.14 1.51c-.53.38-1.19.61-1.99.7l-1.6.18-.76-6.84 1.3-.14.56 5.04.53-.06c.69-.08 1.2-.33 1.53-.75.33-.43.46-.99.38-1.68-.08-.74-.35-1.29-.8-1.65-.45-.36-1.03-.5-1.76-.42l-2.28.25c-.68.08-1.18.35-1.5.83-.32.48-.44 1.1-.36 1.88.06.5.2.91.44 1.24.24.32.54.53.92.62l-.25 1.79c-.72-.13-1.29-.49-1.72-1.09-.43-.6-.7-1.4-.81-2.39-.08-.94-.02-1.73.19-2.39zm1.59 13.36-.5 3.63c-.12.87-.06 1.53.17 1.98.23.45.6.71 1.12.78l1.01.14c.4.05.76.02 1.07-.12.31-.13.57-.36.77-.69.2-.33.33-.74.4-1.25l.53-3.85 1.39.19-.53 3.85c-.1.69-.02 1.24.22 1.63.24.4.65.63 1.21.71l.79.11c.53.07.96-.06 1.28-.41.32-.35.53-.89.63-1.62l.51-3.71 1.4.19-.54 3.88c-.12.86-.34 1.57-.65 2.13-.32.56-.72.96-1.2 1.2s-1.02.32-1.63.24l-.79-.11c-.41-.06-.78-.2-1.11-.42-.33-.22-.59-.53-.78-.91-.19-.38-.29-.83-.31-1.35-.14.52-.36.96-.66 1.3-.3.35-.66.6-1.07.75-.41.15-.85.19-1.32.13l-.96-.13c-.61-.08-1.12-.31-1.52-.69-.4-.38-.69-.88-.84-1.5-.16-.63-.18-1.34-.07-2.15l.57-4.12 1.41.19zm11.67.25-.26 1.86-12.88-1.77.26-1.87L140 75.14zM124.98 86.3c.44-.49.95-.8 1.53-.94.58-.14 1.21-.1 1.88.13l2.73.92c.67.22 1.19.57 1.55 1.03.37.46.58 1.02.63 1.67.05.65-.06 1.38-.33 2.19-.27.8-.63 1.45-1.07 1.95-.44.49-.95.81-1.52.95-.57.14-1.19.1-1.86-.13l-2.75-.93c-.67-.22-1.18-.57-1.55-1.02-.37-.46-.58-1.02-.63-1.68-.05-.66.06-1.39.33-2.19.26-.82.62-1.47 1.06-1.95zm.26 4.05c.2.46.58.79 1.16.98l2.72.92c.57.19 1.07.16 1.51-.09.43-.25.76-.7.98-1.35.22-.65.23-1.2.04-1.65s-.58-.78-1.15-.97l-2.72-.92c-.58-.19-1.08-.17-1.52.08-.44.25-.76.69-.98 1.33-.23.66-.24 1.21-.04 1.67zm-3.97 5.29c.52-.4 1.08-.62 1.68-.66.6-.04 1.2.11 1.83.45l2.52 1.38c.62.34 1.07.77 1.35 1.29s.39 1.1.33 1.76c-.06.65-.3 1.35-.72 2.1-.41.74-.87 1.32-1.4 1.73s-1.08.63-1.67.67c-.59.04-1.19-.11-1.81-.45l-2.55-1.4c-.62-.34-1.07-.77-1.35-1.28-.28-.52-.39-1.1-.33-1.76s.3-1.36.71-2.1c.42-.75.89-1.33 1.41-1.73zm-.46 4.04c.11.49.43.88.97 1.17l2.52 1.38c.53.29 1.03.35 1.5.18.47-.17.87-.55 1.2-1.15.33-.6.44-1.14.33-1.62s-.43-.87-.96-1.16l-2.51-1.38c-.53-.29-1.04-.36-1.51-.19-.47.16-.87.54-1.2 1.14-.34.6-.45 1.14-.34 1.63zm-2.48 9.18.24 1.67-7.62-.52 1.34-1.66 6.04.51zm8.54 2.12-1.2 1.48-10.11-8.15 1.2-1.48 10.11 8.15zm-8.24-5.32 1.21 8.1-1.35 1.67-1.31-11.03 1.45 1.26zm-2.28 11.69-1.38 1.31-6.4-6.7 1.38-1.31 6.4 6.7zm2.45 2.57-1.38 1.31-1.05-1.1 1.38-1.31 1.05 1.1zm-13.7 2.48c.37.51.81.79 1.31.83.5.05 1.04-.14 1.62-.56.57-.41.92-.86 1.03-1.33.11-.47-.01-.95-.36-1.44l1.1 1.12c.09.65 0 1.26-.28 1.81s-.7 1.03-1.28 1.45c-.88.63-1.71.89-2.51.78-.79-.11-1.5-.59-2.12-1.44l-3.63-5 1.55-1.12 3.57 4.9zm6.99-1.08-1.55 1.12-5.44-7.5 1.55-1.12 5.44 7.5zm-16.52-3.92c.73.07 1.32.4 1.75.98l-1.42 1.13c-.26-.32-.59-.5-1-.56-.41-.05-.85.03-1.31.25-.66.31-1.1.7-1.33 1.17-.22.47-.21.97.05 1.5l4.22 8.86-1.72.81-4.17-8.75c-.3-.63-.41-1.25-.32-1.84.09-.59.36-1.14.82-1.65.46-.51 1.1-.96 1.92-1.34.93-.44 1.77-.63 2.51-.56zm1.26 3.2c.57.01 1.07.18 1.52.51.45.33.82.8 1.11 1.41l1.28 2.69c.3.63.44 1.23.42 1.79-.03.56-.2 1.06-.54 1.51-.33.44-.82.82-1.45 1.12-.61.29-1.21.42-1.81.4-.6-.02-1.17-.2-1.7-.54l-.46-1.5c.16.33.37.58.64.76.27.18.58.27.94.28.36.01.73-.08 1.14-.27.62-.29 1.03-.68 1.22-1.17.19-.48.16-1.01-.12-1.59l-1.27-2.66c-.26-.55-.64-.9-1.13-1.04-.49-.14-1.05-.06-1.66.23-.4.19-.71.43-.92.71-.21.28-.34.58-.37.9-.04.32.02.64.18.97l-.82-1.37c0-.56.16-1.08.51-1.55.34-.47.84-.86 1.49-1.17.63-.28 1.24-.43 1.8-.42zm-28.28 12.32-3.22-.05 6.64-3.43-.03 1.85-3.39 1.63zm3.31 3.58-6.53-3.64 3.22.05 3.34 1.76-.03 1.83zm-11.64-4.3-3.19-.47 7.03-2.55-.27 1.83-3.57 1.19zm2.82 3.98-6-4.44 3.19.47 3.08 2.17-.27 1.8zm-10.96-5.78-3.1-.88 7.31-1.6-.51 1.77-3.7.71zm2.26 4.31-5.36-5.2 3.1.88 2.77 2.56-.51 1.76zm-21.8-21.02c.32.73.41 1.45.28 2.16-.13.71-.48 1.36-1.04 1.97l-3.57 3.81c-.57.61-1.2 1-1.9 1.18-.7.18-1.42.13-2.18-.13-.75-.27-1.5-.74-2.23-1.43s-1.26-1.39-1.58-2.12c-.32-.73-.41-1.45-.28-2.15.13-.71.48-1.36 1.05-1.97l3.56-3.81c.57-.6 1.2-1 1.9-1.17.7-.18 1.42-.14 2.18.13.75.27 1.5.74 2.23 1.43.73.66 1.26 1.37 1.58 2.1zm-3.95-1.91c-.46-.16-.9-.18-1.33-.07-.43.11-.82.36-1.18.74l-3.64 3.88c-.36.38-.58.79-.66 1.22-.08.43-.03.87.16 1.31.19.45.51.88.96 1.29.45.42.9.7 1.36.86.46.16.9.18 1.33.07.43-.11.82-.36 1.18-.74l3.64-3.88c.36-.38.58-.79.66-1.22.08-.43.02-.87-.17-1.32-.19-.45-.51-.88-.96-1.29-.44-.4-.89-.69-1.35-.85zm-11.38-6.81c-.51.37-.79.8-.84 1.3-.05.5.14 1.04.56 1.62.41.57.86.92 1.33 1.03.47.11.96-.01 1.45-.36l-1.13 1.1a3.07 3.07 0 0 1-1.81-.28c-.55-.27-1.03-.7-1.45-1.28-.63-.87-.89-1.71-.77-2.5.11-.79.6-1.49 1.45-2.1l5.02-3.6 1.12 1.55-4.93 3.52zm1.06 6.97-1.11-1.55 7.54-5.4 1.12 1.55-7.55 5.4zm-1.46-14.83c.29-.15.47-.35.55-.59.07-.24.03-.51-.12-.8l-.41-.78 1.25-.65.52.99c.4.76.52 1.45.36 2.07-.16.62-.59 1.1-1.28 1.47l-9.34 4.87-.89-1.69 9.36-4.89zm-11.4.18-.72-1.76 1.41-.57.72 1.76-1.41.57zm3.3-1.34-.72-1.76 8.59-3.51.72 1.76-8.59 3.51zm-.62-12.29c-.61.16-1.03.46-1.26.91-.23.45-.25 1.02-.07 1.71.18.68.47 1.16.87 1.44s.89.34 1.48.19l-1.45.61c-.64-.16-1.17-.46-1.59-.92-.41-.45-.71-1.03-.89-1.72-.27-1.04-.21-1.91.19-2.61s1.1-1.18 2.12-1.44l5.99-1.54.48 1.84-5.87 1.53zm-1.54 6.88-.48-1.84 8.99-2.31.48 1.84-8.99 2.31zm6.16-14.31c-.24.66-.62 1.17-1.13 1.55-.51.38-1.15.59-1.91.64l-2.14.15c-.8.06-1.49-.06-2.08-.34-.59-.29-1.05-.73-1.4-1.32-.34-.6-.54-1.33-.61-2.21-.06-.84.04-1.58.29-2.2a3.1 3.1 0 0 1 1.2-1.47c.55-.36 1.22-.56 2.01-.62l1.61-.11.49 6.87-1.3.09-.36-5.06-.54.04c-.69.05-1.21.28-1.56.69-.35.41-.5.97-.45 1.66.05.74.3 1.3.73 1.68.43.38 1.01.54 1.74.49l2.28-.16c.68-.05 1.19-.3 1.53-.77.34-.46.49-1.08.43-1.86-.04-.5-.17-.92-.39-1.25s-.52-.55-.89-.66l.32-1.78c.71.16 1.27.54 1.68 1.16.41.62.64 1.42.72 2.42.05.93-.03 1.71-.27 2.37zM0 62.08l.33-1.85 12.8 2.28-.33 1.85L0 62.08zm11.65.72.65-3.61c.15-.86.13-1.52-.08-1.98-.21-.46-.58-.74-1.09-.83l-1-.18c-.4-.07-.76-.05-1.08.07-.32.12-.58.34-.79.66-.21.32-.36.73-.45 1.23l-.71 3.83-1.38-.25.69-3.83c.12-.69.07-1.23-.16-1.64-.23-.41-.62-.66-1.19-.76l-.78-.14c-.53-.09-.96.03-1.3.36-.33.33-.57.86-.7 1.6l-.66 3.69-1.39-.25.69-3.85c.15-.86.4-1.56.74-2.1.34-.55.75-.93 1.24-1.15.49-.22 1.03-.28 1.64-.17l.78.14c.41.07.78.23 1.09.47.32.24.56.55.74.94.18.39.26.84.25 1.36.16-.52.4-.94.72-1.28.32-.34.68-.57 1.1-.71.41-.13.86-.16 1.33-.08l.96.17c.61.11 1.1.36 1.49.75.39.39.65.91.78 1.54s.13 1.35-.02 2.15l-.73 4.09-1.38-.24zm3.8-11.26c-.46.47-.99.76-1.57.88-.59.12-1.21.05-1.87-.2l-2.69-1.03c-.66-.25-1.16-.61-1.51-1.09-.35-.48-.54-1.04-.56-1.7-.03-.65.11-1.38.42-2.18.3-.79.69-1.42 1.15-1.9.46-.48.98-.77 1.56-.89.58-.12 1.2-.05 1.85.2l2.71 1.04c.66.25 1.16.61 1.51 1.09.35.47.54 1.04.57 1.7.03.66-.11 1.39-.42 2.18-.3.8-.69 1.43-1.15 1.9zm-.09-4.06c-.18-.47-.55-.81-1.12-1.03l-2.68-1.02c-.56-.22-1.07-.21-1.51.03-.44.23-.79.67-1.03 1.31-.25.64-.28 1.19-.1 1.65.18.46.55.8 1.11 1.01l2.68 1.03c.57.22 1.07.21 1.52-.02.44-.23.79-.66 1.03-1.29.24-.65.28-1.2.1-1.67zm4.18-5.14c-.54.38-1.1.58-1.7.59-.6.01-1.2-.16-1.81-.53l-2.47-1.48c-.6-.36-1.03-.81-1.3-1.34-.26-.53-.35-1.12-.26-1.77.09-.65.36-1.34.8-2.07.44-.73.93-1.28 1.47-1.67.54-.39 1.1-.59 1.69-.6.59-.01 1.19.16 1.79.52l2.49 1.5c.6.36 1.03.81 1.3 1.33.26.53.35 1.12.26 1.77-.09.66-.35 1.35-.79 2.07-.45.74-.94 1.3-1.47 1.68zm.62-4.02c-.09-.49-.4-.9-.92-1.21l-2.46-1.48c-.52-.31-1.01-.39-1.49-.24-.48.15-.89.52-1.25 1.1-.35.59-.49 1.12-.39 1.61.09.49.4.88.91 1.19l2.46 1.48c.52.31 1.02.4 1.5.25.48-.15.89-.51 1.24-1.09.36-.58.49-1.11.4-1.61zm-5.65-11.47 1.26-1.44 9.79 8.53-1.26 1.43-9.79-8.52zm8.03 5.64-.9-8.14 1.42-1.62.88 11.07-1.4-1.31zm.43-3.2-.17-1.67 7.6.82-1.41 1.6-6.02-.75zm-.05-11.06 1.43-1.26 1.01 1.14-1.44 1.26-1-1.14zm2.35 2.66 1.44-1.26 6.14 6.94-1.44 1.26-6.14-6.94zm4.46-3.84L31.32 16l5.14 7.71-1.59 1.06-5.14-7.72zm7.03-.8c-.35-.53-.78-.82-1.27-.88s-1.05.1-1.64.49c-.59.39-.95.82-1.08 1.29-.13.47-.03.95.3 1.45L32 17.44c-.06-.66.05-1.26.35-1.79.29-.54.74-1 1.34-1.4.9-.6 1.75-.82 2.53-.68.79.14 1.48.65 2.06 1.52l3.43 5.14-1.59 1.06-3.36-5.04zm8.17 2.13c-.57-.03-1.07-.22-1.5-.57-.44-.35-.79-.83-1.06-1.45l-1.17-2.74c-.28-.64-.39-1.25-.34-1.81.05-.56.25-1.06.6-1.49.35-.43.85-.78 1.49-1.06.62-.26 1.22-.37 1.82-.33.6.05 1.16.25 1.68.61l.4 1.52a1.84 1.84 0 0 0-.61-.78c-.26-.19-.57-.29-.93-.32-.35-.02-.74.05-1.15.23-.63.27-1.05.64-1.27 1.12s-.2 1.01.06 1.59l1.16 2.71c.24.56.61.92 1.09 1.08.49.16 1.04.1 1.67-.16.41-.18.73-.4.95-.67.22-.27.36-.57.41-.89.05-.32 0-.64-.14-.98l.77 1.4a2.58 2.58 0 0 1-.57 1.53c-.36.45-.87.82-1.54 1.11-.65.27-1.25.39-1.82.35zm1.14 3.25c-.73-.1-1.3-.45-1.7-1.05l1.46-1.07c.25.33.57.53.98.6.41.07.85 0 1.32-.2.67-.29 1.13-.66 1.37-1.11.24-.46.25-.96.01-1.5l-3.87-9.02 1.75-.75 3.82 8.91c.28.64.36 1.26.25 1.85-.11.59-.41 1.12-.89 1.61-.48.49-1.14.91-1.97 1.27-.96.41-1.8.56-2.53.46z" style="fill:#fff"></path><path d="m212.2 27.35-2.09.17 4.11-2.67.1 1.2-2.12 1.3zm2.39 2.14-4.49-1.96 2.09-.17 2.3.93.1 1.2zm3.04-2.27-2.1-.1 4.42-2.11-.06 1.2-2.26 1.01zm2.1 2.43-4.2-2.53 2.1.1 2.16 1.22-.06 1.21zm3.29-1.86-2.07-.37 4.66-1.52-.21 1.18-2.38.71zm1.76 2.69-3.83-3.05 2.07.37 1.98 1.49-.22 1.19zm12.61 7.05c-.26-.46-.36-.92-.32-1.39.04-.47.22-.92.55-1.35l2.08-2.72c.33-.44.72-.73 1.16-.89s.92-.18 1.43-.05 1.03.39 1.55.79.91.83 1.17 1.29c.26.46.36.92.33 1.39-.04.47-.22.92-.56 1.36l-2.08 2.72c-.33.43-.72.73-1.16.89-.44.16-.92.18-1.43.06-.51-.13-1.03-.39-1.55-.79-.53-.42-.92-.85-1.17-1.31zm2.69 1c.31.07.6.06.87-.04s.51-.29.72-.56l2.12-2.78c.21-.27.33-.55.35-.84.03-.29-.04-.57-.19-.85s-.39-.54-.71-.78c-.32-.24-.63-.4-.94-.47-.31-.07-.6-.06-.87.04s-.51.29-.72.56l-2.12 2.78c-.21.27-.32.55-.35.84-.02.29.04.57.19.85s.39.54.71.78.63.39.94.47zm6.72-.78.83.94-4.56 4.02-.83-.94 4.56-4.02zm1.15 4.49c.31-.27.46-.58.46-.91 0-.33-.16-.67-.47-1.02-.31-.35-.62-.54-.94-.59-.32-.04-.62.07-.92.33l.66-.79c.42-.1.82-.08 1.2.07.38.14.72.39 1.03.74.47.53.69 1.06.67 1.58s-.29 1.02-.81 1.47l-3.04 2.68-.83-.94 2.99-2.62zm.78 5.12c-.18.12-.29.26-.32.42-.03.16.01.34.13.52l.32.48-.77.51-.4-.61c-.31-.47-.43-.92-.37-1.33.06-.41.31-.76.74-1.04l5.77-3.79.69 1.05-5.79 3.79zm5.34.21.59 1.11-5.37 2.86-.59-1.11 5.37-2.86zm2.06-1.1.59 1.11-.88.47-.59-1.11.88-.47zm-.29 4.5.43 1.18-5.71 2.1-.43-1.18 5.71-2.1zm-.55 4.6c.39-.14.64-.37.76-.68s.09-.68-.07-1.12c-.16-.44-.38-.73-.66-.88-.28-.15-.61-.16-.98-.03l.9-.5c.43.06.79.22 1.09.49.3.27.53.62.69 1.06.24.66.26 1.24.05 1.72-.21.48-.64.84-1.29 1.08l-3.8 1.4-.43-1.18 3.74-1.36zm-2.52 5.15c.11-.45.33-.81.64-1.09s.71-.46 1.2-.55l1.39-.24c.52-.09.97-.06 1.38.09s.73.41 1 .78c.26.37.44.84.54 1.4.09.55.08 1.03-.04 1.46-.12.42-.35.77-.68 1.04s-.76.45-1.27.54l-1.04.18-.77-4.46.84-.15.57 3.28.35-.06c.45-.08.77-.26.97-.55s.26-.67.18-1.12c-.08-.48-.28-.83-.59-1.05s-.7-.29-1.17-.21l-1.48.26c-.44.08-.75.28-.95.6-.19.33-.25.74-.16 1.25.06.33.17.59.34.79.17.2.38.33.63.37l-.09 1.18c-.47-.06-.86-.27-1.17-.65s-.51-.89-.63-1.54c-.11-.58-.1-1.1.01-1.55zm1.56 8.72-.18 2.4c-.04.57.02 1 .19 1.29s.42.44.77.47l.67.05c.27.02.5-.02.7-.12.2-.1.36-.26.47-.48.12-.22.19-.5.21-.83l.2-2.55.92.07-.2 2.55c-.04.46.04.81.21 1.06s.45.39.82.42l.52.04c.35.03.62-.08.82-.32.2-.24.31-.6.35-1.09l.19-2.45.92.07-.2 2.56c-.04.57-.16 1.04-.34 1.42-.19.38-.43.66-.73.84s-.66.25-1.06.22l-.52-.04c-.27-.02-.52-.1-.74-.23s-.4-.32-.54-.57c-.14-.24-.22-.54-.25-.88-.07.35-.2.64-.38.88s-.41.42-.67.53c-.26.12-.55.16-.86.14l-.64-.05c-.4-.03-.74-.16-1.02-.39s-.48-.55-.61-.96c-.13-.4-.17-.87-.13-1.41l.21-2.72.9.08zm7.64-.29-.09 1.23-8.5-.65.1-1.23 8.49.65zm-9.38 7.91c.27-.34.59-.56.96-.68s.79-.11 1.23.01l1.82.5c.45.12.8.33 1.06.61.26.29.42.65.48 1.07.06.43.02.91-.13 1.45-.15.54-.35.98-.62 1.32-.27.34-.59.57-.96.68-.37.11-.78.11-1.22-.01l-1.84-.5c-.44-.12-.8-.32-1.06-.61s-.42-.64-.48-1.08-.02-.92.13-1.45c.15-.53.36-.97.63-1.31zm.33 2.65c.15.29.41.5.8.6l1.81.49c.38.1.71.07.98-.12.27-.18.47-.49.59-.92.12-.43.1-.8-.04-1.09s-.41-.49-.79-.59l-1.82-.49c-.38-.1-.71-.07-.99.11s-.47.48-.59.91c-.11.44-.1.81.05 1.1zm-2.38 3.64c.32-.28.68-.45 1.07-.5.39-.05.79.03 1.21.23l1.71.81c.42.2.73.46.93.79s.3.71.28 1.14c-.02.43-.14.9-.38 1.41-.24.5-.52.9-.85 1.19s-.68.46-1.06.5-.78-.03-1.2-.22l-1.72-.82c-.42-.2-.73-.46-.93-.79-.21-.33-.3-.71-.28-1.14.02-.44.14-.91.38-1.41.23-.51.51-.91.84-1.19zm-.15 2.67c.09.32.32.56.68.73l1.7.81c.36.17.69.19.99.06s.55-.4.74-.8c.19-.41.24-.76.15-1.08-.09-.31-.32-.55-.67-.72l-1.7-.81c-.36-.17-.69-.19-.99-.07-.3.13-.55.39-.74.79-.2.41-.25.77-.16 1.09zm-1.24 6.08.22 1.08-5.01-.04.81-1.14 3.98.1zm5.68 1.05-.73 1.02-6.94-4.94.73-1.02 6.94 4.94zm-5.61-3.16 1.12 5.26-.82 1.15-1.29-7.18.99.77zm-1.03 7.76-.85.92-4.45-4.14.85-.92 4.45 4.14zm1.71 1.59-.85.92-.73-.68.85-.92.73.68zm-8.88 2.18c.26.32.56.49.89.5s.68-.13 1.04-.43c.36-.29.57-.6.62-.91.05-.32-.04-.62-.29-.93l.77.69c.08.43.05.83-.11 1.2s-.42.71-.78 1c-.55.45-1.08.65-1.61.61-.52-.04-1-.33-1.44-.86l-2.57-3.14.97-.79 2.51 3.06zm4.52-.98-.97.79-3.85-4.71.97-.79 3.85 4.71zm-10.94-1.93c.48.02.88.21 1.18.58l-.88.8c-.18-.2-.41-.31-.68-.33s-.55.05-.85.22c-.42.23-.69.5-.82.82-.13.31-.1.64.09.98l3.12 5.64-1.09.6-3.08-5.58c-.22-.4-.32-.8-.29-1.19s.19-.76.47-1.11c.28-.35.68-.67 1.2-.96.6-.33 1.15-.49 1.63-.47zm.95 2.05c.37-.02.71.08 1.02.27.31.2.57.49.78.88l.95 1.71c.22.4.34.79.34 1.16s-.09.71-.29 1.01c-.2.3-.5.57-.9.79-.38.21-.77.32-1.17.33s-.77-.09-1.13-.29l-.36-.97c.11.21.26.37.45.47.18.11.39.16.62.15s.48-.08.73-.22c.39-.22.64-.49.75-.81.11-.32.06-.67-.14-1.04l-.93-1.69c-.19-.35-.46-.56-.78-.64-.33-.07-.69 0-1.08.22-.26.14-.45.31-.58.5-.13.19-.2.4-.21.61s.04.42.16.63l-.59-.86c-.03-.37.06-.71.27-1.04.21-.32.51-.6.93-.82.4-.22.79-.33 1.16-.35zm-18 9.2-2.11.1 4.2-2.52.06 1.21-2.15 1.21zm2.31 2.22-4.42-2.12 2.11-.1 2.25 1.02.06 1.2zm-7.81-2.36-2.1-.18 4.5-1.95-.1 1.21-2.3.92zm2 2.5-4.1-2.68 2.1.18 2.1 1.3-.1 1.2zm-7.38-3.36-2.06-.46 4.71-1.34-.26 1.18-2.39.62zm1.65 2.74-3.71-3.2 2.06.46 1.91 1.57-.26 1.17zm-15.1-12.93c.24.47.33.94.27 1.41s-.26.91-.61 1.33l-2.18 2.64c-.35.42-.75.7-1.2.85s-.92.14-1.43 0c-.5-.15-1.01-.43-1.52-.85s-.88-.86-1.12-1.33-.33-.93-.27-1.4c.06-.47.26-.91.61-1.33l2.18-2.64c.35-.42.74-.7 1.19-.84.45-.15.93-.14 1.43 0s1.01.43 1.52.85c.52.4.89.84 1.13 1.31zm-2.66-1.1c-.31-.09-.6-.08-.87.01s-.52.27-.74.53l-2.23 2.69c-.22.27-.35.54-.38.83s.02.57.16.86c.14.29.37.55.67.81.31.25.62.43.92.51.31.09.6.08.87 0 .28-.09.52-.26.74-.53l2.23-2.69c.22-.26.35-.54.38-.83.04-.29-.02-.57-.16-.86-.14-.28-.37-.55-.67-.81s-.61-.43-.92-.52zm-7.69-4c-.32.26-.49.56-.5.89s.13.68.43 1.04c.29.36.6.57.91.62.31.05.62-.04.93-.29l-.69.76c-.43.08-.82.05-1.2-.11-.37-.16-.7-.42-1-.78-.45-.55-.65-1.08-.6-1.61.04-.52.33-1 .87-1.44l3.14-2.56.79.97-3.08 2.51zm.97 4.53-.79-.97 4.71-3.84.79.97-4.71 3.84zm-1.57-9.71c.18-.11.3-.25.33-.41.04-.16 0-.34-.11-.52l-.3-.5.79-.48.38.63c.29.49.4.93.32 1.34-.08.41-.34.75-.78 1.01l-5.92 3.56-.65-1.07 5.94-3.56zm-7.42.62-.54-1.13.9-.43.54 1.13-.9.43zm2.1-1.02-.54-1.13 5.48-2.64.54 1.13-5.48 2.64zm-.91-8.06c-.39.13-.66.34-.79.65-.13.3-.12.68.02 1.12.14.44.35.74.62.91.27.17.6.19.97.07l-.92.46c-.43-.08-.79-.26-1.07-.54s-.5-.64-.65-1.09c-.22-.67-.21-1.25.02-1.72.23-.47.67-.82 1.33-1.03l3.86-1.25.39 1.19-3.78 1.23zm-.73 4.57-.39-1.19 5.79-1.87.39 1.19-5.79 1.87zm3.46-9.62c-.13.44-.36.79-.68 1.06-.32.27-.73.43-1.23.5l-1.39.18c-.52.07-.98.02-1.37-.14-.4-.16-.72-.44-.96-.81s-.41-.85-.48-1.42c-.07-.55-.04-1.04.1-1.45.14-.42.38-.75.72-1.01.34-.25.77-.42 1.29-.48l1.04-.14.59 4.49-.85.11-.44-3.3-.35.05c-.45.06-.78.23-.99.52s-.29.65-.23 1.11c.06.48.24.84.54 1.07.3.23.68.32 1.16.25l1.49-.2c.44-.06.77-.25.97-.56.21-.32.28-.73.21-1.24-.04-.33-.14-.6-.3-.81-.16-.21-.36-.34-.61-.4l.14-1.18c.47.08.85.31 1.14.7.29.39.48.91.56 1.56.09.58.06 1.1-.07 1.54zm-8.86-8.77.14-1.23 8.46.99-.14 1.23-8.46-.99zm7.64.01.28-2.39c.07-.57.02-1.01-.13-1.3s-.41-.46-.75-.5l-.66-.08c-.26-.03-.5 0-.7.09-.2.09-.37.25-.49.46-.13.22-.21.49-.25.83l-.3 2.54-.91-.11.3-2.54c.05-.46 0-.81-.17-1.07s-.43-.41-.81-.45l-.52-.06c-.35-.04-.63.05-.83.29s-.34.59-.39 1.07l-.29 2.44-.92-.11.3-2.55c.07-.57.2-1.04.4-1.41.2-.37.46-.64.77-.81.31-.17.67-.23 1.07-.18l.52.06c.27.03.52.12.73.26.22.14.39.34.52.59.13.25.2.54.22.88.08-.34.22-.63.42-.87.19-.23.42-.4.69-.51.27-.1.55-.14.86-.1l.63.07c.4.05.74.19 1.01.43s.46.57.57.98c.11.41.14.88.07 1.41l-.32 2.71-.92-.07zm2.05-7.56c-.28.33-.61.54-.99.64s-.79.08-1.23-.06l-1.8-.57c-.44-.14-.78-.36-1.03-.66-.25-.3-.39-.66-.44-1.09-.04-.43.02-.91.19-1.45.17-.53.39-.96.68-1.29.28-.33.61-.55.98-.65.37-.1.78-.08 1.22.06l1.82.57c.44.14.78.36 1.03.65.25.3.39.66.44 1.09.04.43-.02.92-.19 1.45-.17.55-.4.98-.68 1.31zm-.22-2.67c-.13-.3-.39-.51-.77-.63l-1.79-.57c-.38-.12-.7-.09-.99.08s-.49.47-.62.9c-.13.43-.14.79 0 1.09s.39.5.76.62l1.79.57c.38.12.71.1.99-.07s.49-.46.62-.89c.14-.43.14-.8.01-1.1zm2.51-3.51c-.34.27-.7.42-1.09.46-.39.03-.79-.06-1.2-.27l-1.67-.88c-.41-.21-.71-.49-.9-.83s-.27-.72-.24-1.15c.03-.43.18-.89.44-1.39.26-.49.56-.88.89-1.15.34-.28.7-.43 1.08-.46.38-.03.78.06 1.19.27l1.69.88c.41.21.71.49.9.82.19.33.27.72.24 1.15-.03.43-.18.9-.44 1.39-.25.51-.55.89-.89 1.16zm.25-2.66c-.08-.32-.29-.57-.65-.76l-1.67-.87c-.35-.18-.68-.22-.98-.1-.31.12-.56.38-.77.77-.21.4-.27.75-.19 1.07.08.31.29.56.64.75l1.67.87c.35.18.68.22.99.1s.56-.37.77-.76c.21-.39.27-.75.19-1.07zM178 42.4l.77-.99 6.74 5.21-.77.99L178 42.4zm5.48 3.39-.9-5.3.86-1.12 1.01 7.23-.97-.81zm.15-2.12-.18-1.09 5 .24-.86 1.11-3.96-.26zm-.46-7.25.89-.88.7.71-.89.88-.7-.71zm1.64 1.65.89-.88 4.29 4.32-.89.88-4.29-4.32zm2.76-2.69 1-.75 3.67 4.85-1 .75-3.67-4.85zm4.56-.8c-.25-.33-.54-.51-.87-.53-.33-.02-.68.11-1.05.39s-.59.58-.66.89.02.63.26.94l-.74-.72c-.07-.43-.02-.83.16-1.19.17-.36.44-.69.82-.97.57-.43 1.11-.61 1.63-.54.52.06.99.37 1.4.92l2.44 3.24-1 .75-2.39-3.18zm5.41 1.09c-.37 0-.71-.1-1.01-.31-.3-.21-.55-.51-.75-.91l-.88-1.75c-.21-.41-.31-.8-.3-1.17s.12-.7.33-1 .52-.55.93-.75c.39-.2.79-.29 1.18-.29s.77.12 1.12.33l.32.98c-.11-.21-.25-.38-.43-.49s-.39-.17-.62-.17c-.23 0-.48.06-.74.2-.4.2-.66.46-.78.78s-.09.67.1 1.04l.87 1.73c.18.36.43.58.76.67.32.08.69.03 1.09-.18.26-.13.46-.29.59-.48a1.155 1.155 0 0 0 .1-1.24l.56.89c.01.37-.09.71-.31 1.02-.22.31-.54.57-.96.79-.4.21-.8.31-1.17.31zm.88 2.09c-.48-.04-.87-.24-1.16-.62l.91-.76c.17.21.4.32.66.35.27.03.55-.03.85-.18.43-.21.71-.48.85-.78.14-.31.12-.64-.05-.99l-2.89-5.76 1.11-.56 2.86 5.69c.21.41.29.81.24 1.2-.05.39-.22.75-.52 1.09s-.71.64-1.24.91c-.6.31-1.14.44-1.62.41z" style="fill:#010101"></path></svg> 