<?xml version="1.0" encoding="utf-8"?>
<!-- Generator: Adobe Illustrator 23.0.0, SVG Export Plug-In . SVG Version: 6.00 Build 0)  -->
<svg version="1.1" id="Layer_1" xmlns="http://www.w3.org/2000/svg" xmlns:xlink="http://www.w3.org/1999/xlink" x="0px" y="0px"
	 viewBox="0 0 24 24" style="enable-background:new 0 0 24 24;" xml:space="preserve">
<style type="text/css">
	.st0{fill-rule:evenodd;clip-rule:evenodd;fill:#FFFFFF;}
</style>
<path class="st0" d="M4.5,15.5C5.4,14.5,6.7,14,8,14h8c1.3,0,2.6,0.5,3.5,1.5c0.9,0.9,1.5,2.2,1.5,3.5v2c0,0.6-0.4,1-1,1s-1-0.4-1-1
	v-2c0-0.8-0.3-1.6-0.9-2.1C17.6,16.3,16.8,16,16,16H8c-0.8,0-1.6,0.3-2.1,0.9C5.3,17.4,5,18.2,5,19v2c0,0.6-0.4,1-1,1s-1-0.4-1-1v-2
	C3,17.7,3.5,16.4,4.5,15.5z"/>
<path class="st0" d="M12,4c-1.7,0-3,1.3-3,3s1.3,3,3,3s3-1.3,3-3S13.7,4,12,4z M7,7c0-2.8,2.2-5,5-5c2.8,0,5,2.2,5,5s-2.2,5-5,5
	C9.2,12,7,9.8,7,7z"/>
</svg>
